#!OML:ASF F:\VICON\USERDATA\INSTALL\Justin_Nancy\Justin_Nancy.ASF
:FULLY-SPECIFIED
:DEGREES
1
root -8.69551 17.1152 -35.5737 2.28968 -2.70381 7.26917
lowerback 1.65571 -2.91291 -9.63559
upperback -0.31925 -4.06642 2.35452
thorax -0.420391 -2.00608 7.94129
lowerneck -7.32501 0.267753 -13.0333
upperneck 14.9477 1.15861 6.05914
head 5.60738 0.271373 4.14543
rclavicle -4.64162e-014 1.90833e-014
rhumerus -37.5645 -12.8962 -74.0745
rradius 23.9384
rwrist 13.2621
rhand -13.9419 17.9381
rfingers 7.12502
rthumb 12.1851 -11.687
lclavicle -4.64162e-014 1.90833e-014
lhumerus -26.787 16.1322 81.6499
lradius 30.9074
lwrist -7.57966
lhand -16.0858 24.6663
lfingers 7.12502
lthumb 10.1174 54.4031
rfemur -30.6784 0.73639 16.3366
rtibia 16.9472
rfoot -2.5033 -3.44861
rtoes -1.68527
lfemur 10.203 1.20501 -31.8294
ltibia 16.7505
lfoot -13.7731 -2.73952
ltoes -9.72275
2
root -8.72828 17.0854 -35.4216 2.99178 -5.50138 7.1718
lowerback 0.434406 -0.707674 -8.40265
upperback 0.587441 -0.960265 0.93555
thorax 0.5211 -0.523107 5.69161
lowerneck -10.3219 -1.29378 -10.8092
upperneck 15.328 -0.990015 6.40436
head 6.44094 -0.588434 3.76025
rclavicle 1.33186e-014 -8.74653e-015
rhumerus -37.005 -18.9551 -74.0346
rradius 23.6948
rwrist 14.2786
rhand -13.4713 17.0166
rfingers 7.12502
rthumb 12.6388 -12.581
lclavicle 1.33186e-014 -8.74653e-015
lhumerus -23.4065 11.2542 82.1754
lradius 30.4319
lwrist -7.41933
lhand -15.9481 25.8977
lfingers 7.12502
lthumb 10.2502 55.6279
rfemur -32.2424 2.1618 17.036
rtibia 18.4475
rfoot -0.803961 -1.54299
rtoes -1.30892
lfemur 9.34009 2.59157 -32.1337
ltibia 17.3503
lfoot -13.7062 -1.41937
ltoes -13.8985
3
root -8.7341 17.111 -35.2471 2.30395 -4.59734 7.35918
lowerback 0.873995 -1.7948 -8.90193
upperback 0.349044 -2.46423 1.43336
thorax 0.312285 -1.26217 6.50213
lowerneck -8.37268 -0.262995 -11.8241
upperneck 14.7321 0.377347 6.28468
head 5.79214 -0.00669488 3.9737
rclavicle -5.46658e-015 -7.95139e-016
rhumerus -37.095 -15.9269 -74.3229
rradius 23.4881
rwrist 14.1072
rhand -12.211 6.94098
rfingers 7.12502
rthumb 13.8536 -22.5776
lclavicle -5.46658e-015 -7.95139e-016
lhumerus -25.3173 13.8705 81.5641
lradius 30.8257
lwrist -7.49896
lhand -16.0994 24.8848
lfingers 7.12502
lthumb 10.1043 54.6222
rfemur -31.6722 1.9986 16.6212
rtibia 19.9802
rfoot -0.0209948 -2.13116
rtoes -0.341864
lfemur 10.6465 1.56968 -32.2937
ltibia 17.321
lfoot -13.537 -1.56612
ltoes -18.7566
4
root -8.74562 17.1414 -35.0694 1.8843 -4.08164 7.31301
lowerback 2.63922 -0.770824 -8.756
upperback 0.501729 -1.25878 1.20618
thorax -0.745483 -0.613758 6.21942
lowerneck -11.5211 -1.54625 -10.9044
upperneck 16.6084 -1.14004 5.99199
head 7.07805 -0.708252 3.65076
rclavicle -3.3197e-014 -3.97569e-015
rhumerus -37.5891 -18.9132 -73.1561
rradius 23.744
rwrist 14.1765
rhand -13.7615 17.6272
rfingers 7.12502
rthumb 12.3591 -11.9875
lclavicle -3.3197e-014 -3.97569e-015
lhumerus -23.7327 11.456 82.8587
lradius 30.0842
lwrist -7.79193
lhand -16.4897 24.3075
lfingers 7.12502
lthumb 9.72773 54.0628
rfemur -31.3096 2.1832 16.4165
rtibia 21.1591
rfoot 0.235254 -3.18917
rtoes 1.12504
lfemur 11.3999 0.934798 -32.2268
ltibia 17.7731
lfoot -13.3653 -2.31263
ltoes -21.6502
5
root -8.75599 17.16 -34.8905 1.68424 -3.8083 7.06405
lowerback 1.81408 -1.40239 -7.77018
upperback 0.648871 -2.00066 0.843734
thorax -0.0493034 -1.01932 5.26801
lowerneck -9.69731 -0.957284 -10.9068
upperneck 15.8772 -0.582098 6.31074
head 6.46982 -0.423986 3.78682
rclavicle -1.23246e-014 7.95139e-016
rhumerus -37.5722 -18.5175 -74.013
rradius 23.4594
rwrist 14.8627
rhand -13.0165 14.1705
rfingers 7.12502
rthumb 13.0773 -15.3995
lclavicle -1.23246e-014 7.95139e-016
lhumerus -24.2169 12.7783 81.5243
lradius 29.8311
lwrist -8.01347
lhand -16.8336 24.0354
lfingers 7.12502
lthumb 9.3959 53.806
rfemur -31.0851 2.42167 16.5544
rtibia 22.174
rfoot 0.296222 -4.26924
rtoes -0.204048
lfemur 11.9024 0.424717 -31.9835
ltibia 18.3042
lfoot -12.3334 -2.97009
ltoes -21.4183
6
root -8.76813 17.1691 -34.7145 1.48667 -3.64975 6.71501
lowerback 3.60656 -1.78978 -9.14445
upperback -0.634263 -2.74794 2.35655
thorax -2.14636 -1.24193 7.76491
lowerneck -8.37051 -0.510626 -12.2037
upperneck 16.6624 0.228212 5.30376
head 6.43016 -0.227204 3.74155
rclavicle -3.43401e-014 1.27222e-014
rhumerus -38.6821 -14.8491 -72.7386
rradius 23.528
rwrist 13.8955
rhand -12.7779 13.3037
rfingers 7.12502
rthumb 13.3073 -16.2514
lclavicle -3.43401e-014 1.27222e-014
lhumerus -27.0691 15.5997 82.1359
lradius 30.0441
lwrist -8.60422
lhand -16.8516 24.1383
lfingers 7.12502
lthumb 9.37854 53.9097
rfemur -30.7672 2.46223 16.9342
rtibia 22.9573
rfoot 0.577041 -4.65977
rtoes -1.91823
lfemur 12.1543 -0.168028 -31.6844
ltibia 19.2585
lfoot -10.9559 -3.13761
ltoes -20.3669
7
root -8.77599 17.1919 -34.5281 1.36427 -2.9702 6.37568
lowerback 5.62437 -1.33642 -9.34891
upperback -1.21512 -2.34521 2.88229
thorax -3.95346 -0.907236 8.54089
lowerneck -10.3761 -1.25275 -12.0378
upperneck 18.3626 -0.409742 4.48847
head 7.40109 -0.623459 3.43067
rclavicle -2.09718e-014 4.77083e-015
rhumerus -39.3146 -15.5702 -71.2206
rradius 23.4412
rwrist 13.7484
rhand -12.3548 11.9394
rfingers 7.12502
rthumb 13.715 -17.5886
lclavicle -2.09718e-014 4.77083e-015
lhumerus -27.5936 15.0454 83.2932
lradius 29.985
lwrist -8.69596
lhand -16.2977 23.7366
lfingers 7.12502
lthumb 9.91298 53.4832
rfemur -30.3031 1.94868 17.2795
rtibia 23.5325
rfoot 1.08999 -4.62208
rtoes -0.836692
lfemur 12.1027 -1.06854 -31.3024
ltibia 20.6383
lfoot -9.68686 -3.46171
ltoes -20.4128
8
root -8.7794 17.2277 -34.3358 1.33155 -1.89263 6.27373
lowerback 7.85007 -3.21328 -12.2786
upperback -3.3748 -5.30534 5.72291
thorax -6.42757 -1.94251 13.9896
lowerneck -7.81762 0.890639 -15.0906
upperneck 19.0068 2.9418 2.87629
head 6.89666 0.588718 3.65322
rclavicle -1.85988e-014 9.54166e-015
rhumerus -39.9721 -6.55565 -69.964
rradius 23.2332
rwrist 12.5184
rhand -11.3943 11.1869
rfingers 7.12502
rthumb 14.6407 -18.2762
lclavicle -1.85988e-014 9.54166e-015
lhumerus -33.7381 22.5656 82.8988
lradius 30.9867
lwrist -9.33507
lhand -16.4848 23.1876
lfingers 7.12502
lthumb 9.73241 52.9427
rfemur -29.7705 0.905575 17.4075
rtibia 24.0008
rfoot 1.53074 -4.24539
rtoes 1.57004
lfemur 11.8036 -2.03251 -31.0688
ltibia 22.2752
lfoot -8.43835 -4.0996
ltoes -21.2793
9
root -8.78828 17.2589 -34.1455 1.31396 -1.29423 6.06371
lowerback 8.45402 -2.29986 -11.247
upperback -3.22865 -4.05066 5.07727
thorax -7.12218 -1.32396 12.559
lowerneck -9.93361 -0.328342 -13.8148
upperneck 20.3228 1.45958 2.86817
head 7.84489 -0.0887813 3.38048
rclavicle -9.10682e-014 -1.74931e-014
rhumerus -40.5862 -10.5014 -68.934
rradius 23.2777
rwrist 13.2138
rhand -11.4796 11.6182
rfingers 7.12502
rthumb 14.5584 -17.8509
lclavicle -9.10682e-014 -1.74931e-014
lhumerus -32.386 19.7138 84.0171
lradius 30.3419
lwrist -9.39332
lhand -17.189 24.0988
lfingers 7.12502
lthumb 9.05293 53.8845
rfemur -29.2676 0.172027 17.7671
rtibia 24.4684
rfoot 1.62023 -3.51035
rtoes 3.19738
lfemur 11.3603 -2.57563 -30.6861
ltibia 24.0357
lfoot -6.82721 -4.89903
ltoes -21.0391
10
root -8.80808 17.2829 -33.9609 1.26124 -1.31172 5.70496
lowerback 10.0948 -3.28336 -13.2922
upperback -4.68134 -5.75306 7.10481
thorax -8.85247 -1.72564 16.7257
lowerneck -8.23355 1.34819 -15.3887
upperneck 20.5257 4.0126 1.49826
head 7.42485 0.870413 3.365
rclavicle -6.47044e-014 -1.90833e-014
rhumerus -41.008 -3.63269 -68.6223
rradius 23.4561
rwrist 12.1031
rhand -11.7007 12.521
rfingers 7.12502
rthumb 14.3454 -16.9634
lclavicle -6.47044e-014 -1.90833e-014
lhumerus -36.8798 25.2026 83.2756
lradius 30.8985
lwrist -9.76191
lhand -17.0749 23.994
lfingers 7.12502
lthumb 9.16308 53.7749
rfemur -28.8214 0.0813324 18.3169
rtibia 24.9814
rfoot 1.38591 -2.73083
rtoes 4.32311
lfemur 10.8337 -2.56905 -30.1323
ltibia 25.8413
lfoot -5.09624 -5.65842
ltoes -22.0452
11
root -8.83446 17.3008 -33.7851 1.25041 -1.74392 5.34278
lowerback 9.52711 -1.67081 -11.2437
upperback -3.60033 -3.29089 5.5324
thorax -8.36691 -0.801951 13.125
lowerneck -11.0789 -0.629073 -13.3181
upperneck 21.2724 1.29802 2.2174
head 8.40126 -0.233078 3.09141
rclavicle -2.36057e-015 -7.95139e-015
rhumerus -41.0623 -10.9674 -68.0842
rradius 23.4626
rwrist 13.3552
rhand -12.4621 12.1352
rfingers 7.12502
rthumb 13.6117 -17.3998
lclavicle -2.36057e-015 -7.95139e-015
lhumerus -33.1698 20.1435 84.4435
lradius 29.6542
lwrist -9.93478
lhand -16.6808 23.6892
lfingers 7.12502
lthumb 9.54337 53.4531
rfemur -28.4404 0.70709 18.7658
rtibia 25.4387
rfoot 1.09442 -2.52176
rtoes 6.31767
lfemur 10.0855 -1.98589 -29.4889
ltibia 27.7197
lfoot -3.47663 -6.52661
ltoes -24.2077
12
root -8.86547 17.319 -33.6109 1.21571 -2.55173 5.18425
lowerback 9.25852 -1.65109 -11.6234
upperback -3.68899 -3.26908 5.81733
thorax -8.28916 -0.761682 13.6751
lowerneck -10.0387 -0.417296 -13.6968
upperneck 21.0166 1.51989 2.05915
head 8.11215 -0.162468 3.10736
rclavicle 6.75868e-015 4.92986e-014
rhumerus -41.0758 -10.2107 -68.1144
rradius 23.6046
rwrist 13.2029
rhand -13.4466 15.438
rfingers 7.12502
rthumb 12.6627 -14.1581
lclavicle 6.75868e-015 4.92986e-014
lhumerus -34.0227 21.3416 84.0618
lradius 29.4345
lwrist -10.36
lhand -16.7766 23.6852
lfingers 7.12502
lthumb 9.4509 53.4533
rfemur -28.0752 1.82099 18.9825
rtibia 25.895
rfoot 1.05448 -3.00748
rtoes 8.49471
lfemur 9.24395 -1.14359 -29.0587
ltibia 29.5673
lfoot -2.20434 -7.0574
ltoes -27.5541
13
root -8.89643 17.3409 -33.4387 1.23891 -3.49421 4.99893
lowerback 7.91753 -1.5855 -11.1288
upperback -3.24366 -2.98986 5.52857
thorax -7.1275 -0.788458 12.8622
lowerneck -9.25018 -0.251571 -13.6712
upperneck 20.3054 1.51115 2.46316
head 7.72059 -0.0921336 3.21899
rclavicle 7.05686e-015 1.90833e-014
rhumerus -40.6114 -10.6242 -68.8381
rradius 23.5173
rwrist 12.9867
rhand -13.3034 18.4783
rfingers 7.12502
rthumb 12.8007 -11.1093
lclavicle 7.05686e-015 1.90833e-014
lhumerus -33.8497 21.3415 83.5823
lradius 29.2902
lwrist -10.2113
lhand -16.7867 24.2484
lfingers 7.12502
lthumb 9.44113 54.0169
rfemur -27.7757 2.80709 19.32
rtibia 26.2907
rfoot 1.07761 -3.25523
rtoes 8.87793
lfemur 8.29775 -0.146891 -28.5576
ltibia 31.3831
lfoot 1.50954 -8.53084
ltoes -22.202
14
root -8.92702 17.3531 -33.27 1.17144 -4.38454 4.8772
lowerback 5.52274 -1.52982 -9.76138
upperback -2.07555 -2.58359 4.52314
thorax -4.67804 -0.90976 10.6367
lowerneck -8.64817 -0.214753 -13.1457
upperneck 18.9698 1.16042 3.44581
head 7.1764 -0.0747887 3.40181
rclavicle -3.97569e-015 -1.90833e-014
rhumerus -39.3931 -13.0576 -70.1235
rradius 23.1287
rwrist 13.6959
rhand -11.1316 14.8997
rfingers 7.12502
rthumb 14.8937 -14.5449
lclavicle -3.97569e-015 -1.90833e-014
lhumerus -32.2896 20.2822 82.782
lradius 28.8452
lwrist -9.64054
lhand -16.6734 24.7245
lfingers 7.12502
lthumb 9.55052 54.4881
rfemur -27.2712 3.5574 19.6251
rtibia 26.4842
rfoot 0.856944 -2.84816
rtoes 9.06293
lfemur 7.45607 0.815864 -28.1339
ltibia 33.2584
lfoot 3.87392 -9.11233
ltoes -22.3221
